<mxfile host="app.diagrams.net" modified="2022-03-22T02:39:36.466Z" agent="5.0 (Macintosh; Intel Mac OS X 10_15_7) AppleWebKit/537.36 (KHTML, like Gecko) Chrome/99.0.4844.51 Safari/537.36" etag="KQUK2BEqdGvVNV_TxsZr" version="16.6.4" type="github">
  <diagram name="Page-1" id="e7e014a7-5840-1c2e-5031-d8a46d1fe8dd">
    <mxGraphModel dx="2115" dy="532" grid="1" gridSize="10" guides="1" tooltips="1" connect="1" arrows="1" fold="1" page="1" pageScale="1" pageWidth="1169" pageHeight="826" background="none" math="0" shadow="0">
      <root>
        <mxCell id="0" />
        <mxCell id="1" parent="0" />
        <mxCell id="ovywUzPmefheDgbY8iEd-45" style="edgeStyle=orthogonalEdgeStyle;rounded=0;orthogonalLoop=1;jettySize=auto;html=1;entryX=0;entryY=0.75;entryDx=0;entryDy=0;" edge="1" parent="1" source="ovywUzPmefheDgbY8iEd-41" target="ovywUzPmefheDgbY8iEd-42">
          <mxGeometry relative="1" as="geometry">
            <mxPoint x="630" y="158" as="targetPoint" />
            <Array as="points">
              <mxPoint x="600" y="200" />
              <mxPoint x="600" y="158" />
            </Array>
          </mxGeometry>
        </mxCell>
        <mxCell id="ovywUzPmefheDgbY8iEd-46" style="edgeStyle=orthogonalEdgeStyle;rounded=0;orthogonalLoop=1;jettySize=auto;html=1;" edge="1" parent="1" source="ovywUzPmefheDgbY8iEd-41" target="ovywUzPmefheDgbY8iEd-43">
          <mxGeometry relative="1" as="geometry">
            <Array as="points">
              <mxPoint x="600" y="200" />
              <mxPoint x="600" y="240" />
            </Array>
          </mxGeometry>
        </mxCell>
        <mxCell id="ovywUzPmefheDgbY8iEd-41" value="预算科目执行数取数" style="html=1;" vertex="1" parent="1">
          <mxGeometry x="400" y="170" width="120" height="60" as="geometry" />
        </mxCell>
        <mxCell id="ovywUzPmefheDgbY8iEd-42" value="业务单据取数对应" style="html=1;" vertex="1" parent="1">
          <mxGeometry x="640" y="120" width="110" height="50" as="geometry" />
        </mxCell>
        <mxCell id="ovywUzPmefheDgbY8iEd-43" value="报表取数对应" style="html=1;" vertex="1" parent="1">
          <mxGeometry x="640" y="215" width="110" height="50" as="geometry" />
        </mxCell>
        <mxCell id="ovywUzPmefheDgbY8iEd-49" value="" style="edgeStyle=orthogonalEdgeStyle;rounded=0;orthogonalLoop=1;jettySize=auto;html=1;" edge="1" parent="1" source="ovywUzPmefheDgbY8iEd-47" target="ovywUzPmefheDgbY8iEd-41">
          <mxGeometry relative="1" as="geometry" />
        </mxCell>
        <mxCell id="ovywUzPmefheDgbY8iEd-47" value="预算执行数" style="rounded=0;whiteSpace=wrap;html=1;" vertex="1" parent="1">
          <mxGeometry x="400" y="260" width="120" height="60" as="geometry" />
        </mxCell>
        <mxCell id="ovywUzPmefheDgbY8iEd-50" value="" style="edgeStyle=orthogonalEdgeStyle;rounded=0;orthogonalLoop=1;jettySize=auto;html=1;" edge="1" parent="1" source="ovywUzPmefheDgbY8iEd-48" target="ovywUzPmefheDgbY8iEd-47">
          <mxGeometry relative="1" as="geometry" />
        </mxCell>
        <mxCell id="ovywUzPmefheDgbY8iEd-48" value="预算执行数轨迹" style="rounded=0;whiteSpace=wrap;html=1;" vertex="1" parent="1">
          <mxGeometry x="400" y="353" width="120" height="60" as="geometry" />
        </mxCell>
        <mxCell id="ovywUzPmefheDgbY8iEd-51" value="预算控制方案设置" style="html=1;" vertex="1" parent="1">
          <mxGeometry x="120" y="265" width="110" height="50" as="geometry" />
        </mxCell>
        <mxCell id="ovywUzPmefheDgbY8iEd-55" value="预算发布方案" style="html=1;" vertex="1" parent="1">
          <mxGeometry x="120" y="60" width="110" height="50" as="geometry" />
        </mxCell>
        <mxCell id="ovywUzPmefheDgbY8iEd-57" value="" style="edgeStyle=orthogonalEdgeStyle;rounded=0;orthogonalLoop=1;jettySize=auto;html=1;" edge="1" parent="1" source="ovywUzPmefheDgbY8iEd-56" target="ovywUzPmefheDgbY8iEd-55">
          <mxGeometry relative="1" as="geometry" />
        </mxCell>
        <mxCell id="ovywUzPmefheDgbY8iEd-56" value="预算发布数" style="html=1;" vertex="1" parent="1">
          <mxGeometry x="120" y="160" width="110" height="50" as="geometry" />
        </mxCell>
        <mxCell id="ovywUzPmefheDgbY8iEd-64" value="" style="edgeStyle=orthogonalEdgeStyle;rounded=0;orthogonalLoop=1;jettySize=auto;html=1;" edge="1" parent="1" source="ovywUzPmefheDgbY8iEd-62" target="ovywUzPmefheDgbY8iEd-56">
          <mxGeometry relative="1" as="geometry" />
        </mxCell>
        <mxCell id="ovywUzPmefheDgbY8iEd-62" value="发布数轨迹" style="whiteSpace=wrap;html=1;fillColor=rgb(255, 255, 255);strokeColor=rgb(0, 0, 0);fontColor=rgb(0, 0, 0);" vertex="1" parent="1">
          <mxGeometry x="-50" y="155" width="120" height="60" as="geometry" />
        </mxCell>
      </root>
    </mxGraphModel>
  </diagram>
</mxfile>
